<mxfile host="app.diagrams.net" modified="2024-06-28T22:14:19.236Z" agent="Mozilla/5.0 (Windows NT 10.0; Win64; x64) AppleWebKit/537.36 (KHTML, like Gecko) Chrome/126.0.0.0 Safari/537.36" etag="RGDII8w7gO2lEvUORdZW" version="24.6.4" type="device">
  <diagram id="R2lEEEUBdFMjLlhIrx00" name="Page-1">
    <mxGraphModel dx="2990" dy="1622" grid="1" gridSize="10" guides="1" tooltips="1" connect="1" arrows="1" fold="1" page="1" pageScale="1" pageWidth="850" pageHeight="1100" math="0" shadow="0" extFonts="Permanent Marker^https://fonts.googleapis.com/css?family=Permanent+Marker">
      <root>
        <mxCell id="0" />
        <mxCell id="1" parent="0" />
        <mxCell id="LjDAhGZPJIQlyWtu0RJv-1" value="FUNCIONÁRIO" style="rounded=0;whiteSpace=wrap;html=1;" parent="1" vertex="1">
          <mxGeometry x="400" y="190" width="120" height="60" as="geometry" />
        </mxCell>
        <mxCell id="LjDAhGZPJIQlyWtu0RJv-2" value="VEÍCULO" style="rounded=0;whiteSpace=wrap;html=1;" parent="1" vertex="1">
          <mxGeometry x="-60" y="540" width="120" height="60" as="geometry" />
        </mxCell>
        <mxCell id="LjDAhGZPJIQlyWtu0RJv-3" value="CLIENTE" style="rounded=0;whiteSpace=wrap;html=1;" parent="1" vertex="1">
          <mxGeometry x="-215" y="810" width="120" height="60" as="geometry" />
        </mxCell>
        <mxCell id="LjDAhGZPJIQlyWtu0RJv-4" value="LOJA" style="rounded=0;whiteSpace=wrap;html=1;" parent="1" vertex="1">
          <mxGeometry x="300" y="540" width="120" height="60" as="geometry" />
        </mxCell>
        <mxCell id="LjDAhGZPJIQlyWtu0RJv-5" value="DEPENDENTE" style="rounded=0;whiteSpace=wrap;html=1;" parent="1" vertex="1">
          <mxGeometry x="30" y="195" width="120" height="60" as="geometry" />
        </mxCell>
        <mxCell id="LjDAhGZPJIQlyWtu0RJv-6" value="PAGAMENTO" style="rounded=0;whiteSpace=wrap;html=1;" parent="1" vertex="1">
          <mxGeometry x="300" y="810" width="120" height="60" as="geometry" />
        </mxCell>
        <mxCell id="LjDAhGZPJIQlyWtu0RJv-7" value="possui" style="rhombus;whiteSpace=wrap;html=1;" parent="1" vertex="1">
          <mxGeometry x="230" y="200" width="50" height="50" as="geometry" />
        </mxCell>
        <mxCell id="LjDAhGZPJIQlyWtu0RJv-11" value="Nome" style="ellipse;whiteSpace=wrap;html=1;" parent="1" vertex="1">
          <mxGeometry x="350" y="90" width="60" height="40" as="geometry" />
        </mxCell>
        <mxCell id="LjDAhGZPJIQlyWtu0RJv-12" value="Email&lt;span style=&quot;color: rgba(0, 0, 0, 0); font-family: monospace; font-size: 0px; text-align: start; text-wrap: nowrap;&quot;&gt;%3CmxGraphModel%3E%3Croot%3E%3CmxCell%20id%3D%220%22%2F%3E%3CmxCell%20id%3D%221%22%20parent%3D%220%22%2F%3E%3CmxCell%20id%3D%222%22%20value%3D%22Nome%22%20style%3D%22ellipse%3BwhiteSpace%3Dwrap%3Bhtml%3D1%3B%22%20vertex%3D%221%22%20parent%3D%221%22%3E%3CmxGeometry%20x%3D%22330%22%20y%3D%22110%22%20width%3D%2260%22%20height%3D%2240%22%20as%3D%22geometry%22%2F%3E%3C%2FmxCell%3E%3C%2Froot%3E%3C%2FmxGraphModel%3E&lt;/span&gt;" style="ellipse;whiteSpace=wrap;html=1;" parent="1" vertex="1">
          <mxGeometry x="420" y="80" width="60" height="40" as="geometry" />
        </mxCell>
        <mxCell id="LjDAhGZPJIQlyWtu0RJv-13" value="Telefone" style="ellipse;whiteSpace=wrap;html=1;" parent="1" vertex="1">
          <mxGeometry x="490" y="80" width="60" height="40" as="geometry" />
        </mxCell>
        <mxCell id="LjDAhGZPJIQlyWtu0RJv-14" value="&lt;u&gt;ID&lt;/u&gt;" style="ellipse;whiteSpace=wrap;html=1;" parent="1" vertex="1">
          <mxGeometry x="300" y="120" width="60" height="40" as="geometry" />
        </mxCell>
        <mxCell id="LjDAhGZPJIQlyWtu0RJv-15" value="Salário" style="ellipse;whiteSpace=wrap;html=1;" parent="1" vertex="1">
          <mxGeometry x="560" y="90" width="60" height="40" as="geometry" />
        </mxCell>
        <mxCell id="LjDAhGZPJIQlyWtu0RJv-19" value="" style="endArrow=none;html=1;rounded=0;entryX=0.5;entryY=1;entryDx=0;entryDy=0;exitX=0;exitY=0.25;exitDx=0;exitDy=0;" parent="1" source="LjDAhGZPJIQlyWtu0RJv-1" target="LjDAhGZPJIQlyWtu0RJv-14" edge="1">
          <mxGeometry width="50" height="50" relative="1" as="geometry">
            <mxPoint x="410" y="280" as="sourcePoint" />
            <mxPoint x="460" y="230" as="targetPoint" />
          </mxGeometry>
        </mxCell>
        <mxCell id="LjDAhGZPJIQlyWtu0RJv-20" value="" style="endArrow=none;html=1;rounded=0;exitX=0.054;exitY=-0.007;exitDx=0;exitDy=0;entryX=0.5;entryY=1;entryDx=0;entryDy=0;exitPerimeter=0;" parent="1" source="LjDAhGZPJIQlyWtu0RJv-1" target="LjDAhGZPJIQlyWtu0RJv-11" edge="1">
          <mxGeometry width="50" height="50" relative="1" as="geometry">
            <mxPoint x="410" y="280" as="sourcePoint" />
            <mxPoint x="390" y="140" as="targetPoint" />
          </mxGeometry>
        </mxCell>
        <mxCell id="LjDAhGZPJIQlyWtu0RJv-21" value="" style="endArrow=none;html=1;rounded=0;entryX=0.25;entryY=0;entryDx=0;entryDy=0;exitX=0.326;exitY=0.996;exitDx=0;exitDy=0;exitPerimeter=0;" parent="1" source="LjDAhGZPJIQlyWtu0RJv-12" target="LjDAhGZPJIQlyWtu0RJv-1" edge="1">
          <mxGeometry width="50" height="50" relative="1" as="geometry">
            <mxPoint x="410" y="280" as="sourcePoint" />
            <mxPoint x="460" y="230" as="targetPoint" />
          </mxGeometry>
        </mxCell>
        <mxCell id="LjDAhGZPJIQlyWtu0RJv-22" value="" style="endArrow=none;html=1;rounded=0;entryX=0;entryY=1;entryDx=0;entryDy=0;exitX=0.539;exitY=-0.007;exitDx=0;exitDy=0;exitPerimeter=0;" parent="1" source="LjDAhGZPJIQlyWtu0RJv-1" target="LjDAhGZPJIQlyWtu0RJv-13" edge="1">
          <mxGeometry width="50" height="50" relative="1" as="geometry">
            <mxPoint x="410" y="280" as="sourcePoint" />
            <mxPoint x="460" y="230" as="targetPoint" />
          </mxGeometry>
        </mxCell>
        <mxCell id="LjDAhGZPJIQlyWtu0RJv-23" value="" style="endArrow=none;html=1;rounded=0;entryX=0.839;entryY=-0.007;entryDx=0;entryDy=0;entryPerimeter=0;exitX=0;exitY=1;exitDx=0;exitDy=0;" parent="1" source="LjDAhGZPJIQlyWtu0RJv-15" target="LjDAhGZPJIQlyWtu0RJv-1" edge="1">
          <mxGeometry width="50" height="50" relative="1" as="geometry">
            <mxPoint x="410" y="280" as="sourcePoint" />
            <mxPoint x="460" y="230" as="targetPoint" />
          </mxGeometry>
        </mxCell>
        <mxCell id="LjDAhGZPJIQlyWtu0RJv-25" value="" style="endArrow=none;html=1;rounded=0;exitX=1;exitY=0.5;exitDx=0;exitDy=0;entryX=-0.013;entryY=0.602;entryDx=0;entryDy=0;entryPerimeter=0;" parent="1" source="LjDAhGZPJIQlyWtu0RJv-7" target="LjDAhGZPJIQlyWtu0RJv-1" edge="1">
          <mxGeometry width="50" height="50" relative="1" as="geometry">
            <mxPoint x="410" y="280" as="sourcePoint" />
            <mxPoint x="460" y="230" as="targetPoint" />
          </mxGeometry>
        </mxCell>
        <mxCell id="LjDAhGZPJIQlyWtu0RJv-26" value="" style="endArrow=none;html=1;rounded=0;exitX=1;exitY=0.5;exitDx=0;exitDy=0;entryX=0;entryY=0.5;entryDx=0;entryDy=0;" parent="1" source="LjDAhGZPJIQlyWtu0RJv-5" target="LjDAhGZPJIQlyWtu0RJv-7" edge="1">
          <mxGeometry width="50" height="50" relative="1" as="geometry">
            <mxPoint x="410" y="280" as="sourcePoint" />
            <mxPoint x="460" y="230" as="targetPoint" />
          </mxGeometry>
        </mxCell>
        <mxCell id="LjDAhGZPJIQlyWtu0RJv-27" value="n" style="text;html=1;align=center;verticalAlign=middle;resizable=0;points=[];autosize=1;strokeColor=none;fillColor=none;" parent="1" vertex="1">
          <mxGeometry x="200" y="200" width="30" height="30" as="geometry" />
        </mxCell>
        <mxCell id="LjDAhGZPJIQlyWtu0RJv-28" value="1" style="text;html=1;align=center;verticalAlign=middle;resizable=0;points=[];autosize=1;strokeColor=none;fillColor=none;" parent="1" vertex="1">
          <mxGeometry x="270" y="200" width="30" height="30" as="geometry" />
        </mxCell>
        <mxCell id="LjDAhGZPJIQlyWtu0RJv-29" value="Nome" style="ellipse;whiteSpace=wrap;html=1;" parent="1" vertex="1">
          <mxGeometry x="70" y="100" width="60" height="40" as="geometry" />
        </mxCell>
        <mxCell id="LjDAhGZPJIQlyWtu0RJv-31" value="&lt;u&gt;ID&lt;/u&gt;" style="ellipse;whiteSpace=wrap;html=1;" parent="1" vertex="1">
          <mxGeometry x="-90" y="170" width="60" height="40" as="geometry" />
        </mxCell>
        <mxCell id="LjDAhGZPJIQlyWtu0RJv-32" value="Parentesco" style="ellipse;whiteSpace=wrap;html=1;" parent="1" vertex="1">
          <mxGeometry x="-20" y="100" width="70" height="40" as="geometry" />
        </mxCell>
        <mxCell id="LjDAhGZPJIQlyWtu0RJv-33" value="DEPARTAMENTO" style="rounded=0;whiteSpace=wrap;html=1;" parent="1" vertex="1">
          <mxGeometry x="720" y="435" width="120" height="60" as="geometry" />
        </mxCell>
        <mxCell id="LjDAhGZPJIQlyWtu0RJv-34" value="" style="endArrow=none;html=1;rounded=0;entryX=1;entryY=0.5;entryDx=0;entryDy=0;" parent="1" source="LjDAhGZPJIQlyWtu0RJv-5" target="LjDAhGZPJIQlyWtu0RJv-31" edge="1">
          <mxGeometry width="50" height="50" relative="1" as="geometry">
            <mxPoint x="290" y="360" as="sourcePoint" />
            <mxPoint x="340" y="310" as="targetPoint" />
          </mxGeometry>
        </mxCell>
        <mxCell id="LjDAhGZPJIQlyWtu0RJv-36" value="" style="endArrow=none;html=1;rounded=0;entryX=0.692;entryY=0.954;entryDx=0;entryDy=0;entryPerimeter=0;exitX=0.292;exitY=0.014;exitDx=0;exitDy=0;exitPerimeter=0;" parent="1" source="LjDAhGZPJIQlyWtu0RJv-5" target="LjDAhGZPJIQlyWtu0RJv-32" edge="1">
          <mxGeometry width="50" height="50" relative="1" as="geometry">
            <mxPoint x="290" y="360" as="sourcePoint" />
            <mxPoint x="340" y="310" as="targetPoint" />
          </mxGeometry>
        </mxCell>
        <mxCell id="LjDAhGZPJIQlyWtu0RJv-37" value="" style="endArrow=none;html=1;rounded=0;exitX=0.5;exitY=1;exitDx=0;exitDy=0;" parent="1" source="LjDAhGZPJIQlyWtu0RJv-29" target="LjDAhGZPJIQlyWtu0RJv-5" edge="1">
          <mxGeometry width="50" height="50" relative="1" as="geometry">
            <mxPoint x="290" y="360" as="sourcePoint" />
            <mxPoint x="100" y="190" as="targetPoint" />
            <Array as="points" />
          </mxGeometry>
        </mxCell>
        <mxCell id="LjDAhGZPJIQlyWtu0RJv-38" value="trabalha" style="rhombus;whiteSpace=wrap;html=1;" parent="1" vertex="1">
          <mxGeometry x="600" y="310" width="60" height="60" as="geometry" />
        </mxCell>
        <mxCell id="LjDAhGZPJIQlyWtu0RJv-40" value="possui" style="rhombus;whiteSpace=wrap;html=1;" parent="1" vertex="1">
          <mxGeometry x="530" y="540" width="50" height="50" as="geometry" />
        </mxCell>
        <mxCell id="LjDAhGZPJIQlyWtu0RJv-41" value="" style="endArrow=none;html=1;rounded=0;exitX=1;exitY=1;exitDx=0;exitDy=0;" parent="1" source="LjDAhGZPJIQlyWtu0RJv-1" target="LjDAhGZPJIQlyWtu0RJv-38" edge="1">
          <mxGeometry width="50" height="50" relative="1" as="geometry">
            <mxPoint x="290" y="235" as="sourcePoint" />
            <mxPoint x="408" y="236" as="targetPoint" />
          </mxGeometry>
        </mxCell>
        <mxCell id="LjDAhGZPJIQlyWtu0RJv-42" value="" style="endArrow=none;html=1;rounded=0;exitX=1;exitY=1;exitDx=0;exitDy=0;entryX=0;entryY=0;entryDx=0;entryDy=0;" parent="1" source="LjDAhGZPJIQlyWtu0RJv-38" target="LjDAhGZPJIQlyWtu0RJv-33" edge="1">
          <mxGeometry width="50" height="50" relative="1" as="geometry">
            <mxPoint x="300" y="245" as="sourcePoint" />
            <mxPoint x="418" y="246" as="targetPoint" />
          </mxGeometry>
        </mxCell>
        <mxCell id="LjDAhGZPJIQlyWtu0RJv-43" value="1" style="text;html=1;align=center;verticalAlign=middle;resizable=0;points=[];autosize=1;strokeColor=none;fillColor=none;" parent="1" vertex="1">
          <mxGeometry x="650" y="340" width="30" height="30" as="geometry" />
        </mxCell>
        <mxCell id="LjDAhGZPJIQlyWtu0RJv-44" value="n" style="text;html=1;align=center;verticalAlign=middle;resizable=0;points=[];autosize=1;strokeColor=none;fillColor=none;" parent="1" vertex="1">
          <mxGeometry x="595" y="298" width="30" height="30" as="geometry" />
        </mxCell>
        <mxCell id="LjDAhGZPJIQlyWtu0RJv-45" value="&lt;u&gt;ID&lt;/u&gt;" style="ellipse;whiteSpace=wrap;html=1;" parent="1" vertex="1">
          <mxGeometry x="720" y="355" width="60" height="40" as="geometry" />
        </mxCell>
        <mxCell id="LjDAhGZPJIQlyWtu0RJv-46" value="Nome" style="ellipse;whiteSpace=wrap;html=1;" parent="1" vertex="1">
          <mxGeometry x="790" y="355" width="60" height="40" as="geometry" />
        </mxCell>
        <mxCell id="LjDAhGZPJIQlyWtu0RJv-47" value="" style="endArrow=none;html=1;rounded=0;exitX=0.5;exitY=1;exitDx=0;exitDy=0;entryX=0.25;entryY=0;entryDx=0;entryDy=0;" parent="1" source="LjDAhGZPJIQlyWtu0RJv-45" target="LjDAhGZPJIQlyWtu0RJv-33" edge="1">
          <mxGeometry width="50" height="50" relative="1" as="geometry">
            <mxPoint x="940" y="555" as="sourcePoint" />
            <mxPoint x="990" y="505" as="targetPoint" />
          </mxGeometry>
        </mxCell>
        <mxCell id="LjDAhGZPJIQlyWtu0RJv-48" value="" style="endArrow=none;html=1;rounded=0;exitX=0.5;exitY=1;exitDx=0;exitDy=0;entryX=0.25;entryY=0;entryDx=0;entryDy=0;" parent="1" edge="1">
          <mxGeometry width="50" height="50" relative="1" as="geometry">
            <mxPoint x="819.6" y="395" as="sourcePoint" />
            <mxPoint x="819.6" y="435" as="targetPoint" />
          </mxGeometry>
        </mxCell>
        <mxCell id="LjDAhGZPJIQlyWtu0RJv-50" value="" style="endArrow=none;html=1;rounded=0;exitX=1;exitY=0.5;exitDx=0;exitDy=0;entryX=0;entryY=0.5;entryDx=0;entryDy=0;" parent="1" source="LjDAhGZPJIQlyWtu0RJv-4" target="LjDAhGZPJIQlyWtu0RJv-40" edge="1">
          <mxGeometry width="50" height="50" relative="1" as="geometry">
            <mxPoint x="705" y="365" as="sourcePoint" />
            <mxPoint x="810" y="450" as="targetPoint" />
          </mxGeometry>
        </mxCell>
        <mxCell id="LjDAhGZPJIQlyWtu0RJv-51" value="" style="endArrow=none;html=1;rounded=0;exitX=1;exitY=0.5;exitDx=0;exitDy=0;entryX=0;entryY=0.75;entryDx=0;entryDy=0;" parent="1" source="LjDAhGZPJIQlyWtu0RJv-40" target="LjDAhGZPJIQlyWtu0RJv-33" edge="1">
          <mxGeometry width="50" height="50" relative="1" as="geometry">
            <mxPoint x="715" y="375" as="sourcePoint" />
            <mxPoint x="820" y="460" as="targetPoint" />
          </mxGeometry>
        </mxCell>
        <mxCell id="LjDAhGZPJIQlyWtu0RJv-52" value="n" style="text;html=1;align=center;verticalAlign=middle;resizable=0;points=[];autosize=1;strokeColor=none;fillColor=none;" parent="1" vertex="1">
          <mxGeometry x="570" y="535" width="30" height="30" as="geometry" />
        </mxCell>
        <mxCell id="LjDAhGZPJIQlyWtu0RJv-53" value="1" style="text;html=1;align=center;verticalAlign=middle;resizable=0;points=[];autosize=1;strokeColor=none;fillColor=none;" parent="1" vertex="1">
          <mxGeometry x="500" y="540" width="30" height="30" as="geometry" />
        </mxCell>
        <mxCell id="LjDAhGZPJIQlyWtu0RJv-54" value="&lt;u&gt;CNPJ&lt;/u&gt;" style="ellipse;whiteSpace=wrap;html=1;" parent="1" vertex="1">
          <mxGeometry x="270" y="460" width="60" height="40" as="geometry" />
        </mxCell>
        <mxCell id="LjDAhGZPJIQlyWtu0RJv-55" value="Nome fantasia" style="ellipse;whiteSpace=wrap;html=1;" parent="1" vertex="1">
          <mxGeometry x="340" y="460" width="60" height="40" as="geometry" />
        </mxCell>
        <mxCell id="LjDAhGZPJIQlyWtu0RJv-56" value="Logradouro" style="ellipse;whiteSpace=wrap;html=1;" parent="1" vertex="1">
          <mxGeometry x="420" y="460" width="65" height="40" as="geometry" />
        </mxCell>
        <mxCell id="LjDAhGZPJIQlyWtu0RJv-57" value="" style="endArrow=none;html=1;rounded=0;exitX=0.5;exitY=1;exitDx=0;exitDy=0;entryX=0.087;entryY=-0.011;entryDx=0;entryDy=0;entryPerimeter=0;" parent="1" source="LjDAhGZPJIQlyWtu0RJv-54" target="LjDAhGZPJIQlyWtu0RJv-4" edge="1">
          <mxGeometry width="50" height="50" relative="1" as="geometry">
            <mxPoint x="400" y="590" as="sourcePoint" />
            <mxPoint x="450" y="540" as="targetPoint" />
          </mxGeometry>
        </mxCell>
        <mxCell id="LjDAhGZPJIQlyWtu0RJv-58" value="" style="endArrow=none;html=1;rounded=0;exitX=0.5;exitY=1;exitDx=0;exitDy=0;entryX=0.087;entryY=-0.011;entryDx=0;entryDy=0;entryPerimeter=0;" parent="1" edge="1">
          <mxGeometry width="50" height="50" relative="1" as="geometry">
            <mxPoint x="369.57" y="501" as="sourcePoint" />
            <mxPoint x="369.57" y="540" as="targetPoint" />
          </mxGeometry>
        </mxCell>
        <mxCell id="LjDAhGZPJIQlyWtu0RJv-59" value="" style="endArrow=none;html=1;rounded=0;exitX=0.5;exitY=1;exitDx=0;exitDy=0;entryX=0.893;entryY=0.001;entryDx=0;entryDy=0;entryPerimeter=0;" parent="1" target="LjDAhGZPJIQlyWtu0RJv-4" edge="1">
          <mxGeometry width="50" height="50" relative="1" as="geometry">
            <mxPoint x="440" y="496" as="sourcePoint" />
            <mxPoint x="440" y="535" as="targetPoint" />
            <Array as="points" />
          </mxGeometry>
        </mxCell>
        <mxCell id="LjDAhGZPJIQlyWtu0RJv-60" value="possui" style="rhombus;whiteSpace=wrap;html=1;" parent="1" vertex="1">
          <mxGeometry x="150" y="545" width="50" height="50" as="geometry" />
        </mxCell>
        <mxCell id="LjDAhGZPJIQlyWtu0RJv-61" value="" style="endArrow=none;html=1;rounded=0;exitX=1;exitY=0.5;exitDx=0;exitDy=0;" parent="1" source="LjDAhGZPJIQlyWtu0RJv-2" edge="1">
          <mxGeometry width="50" height="50" relative="1" as="geometry">
            <mxPoint x="430" y="580" as="sourcePoint" />
            <mxPoint x="150" y="570" as="targetPoint" />
          </mxGeometry>
        </mxCell>
        <mxCell id="LjDAhGZPJIQlyWtu0RJv-62" value="" style="endArrow=none;html=1;rounded=0;exitX=1;exitY=0.5;exitDx=0;exitDy=0;entryX=0;entryY=0.5;entryDx=0;entryDy=0;" parent="1" target="LjDAhGZPJIQlyWtu0RJv-4" edge="1">
          <mxGeometry width="50" height="50" relative="1" as="geometry">
            <mxPoint x="200" y="570" as="sourcePoint" />
            <mxPoint x="290" y="570" as="targetPoint" />
          </mxGeometry>
        </mxCell>
        <mxCell id="LjDAhGZPJIQlyWtu0RJv-63" value="1" style="text;html=1;align=center;verticalAlign=middle;resizable=0;points=[];autosize=1;strokeColor=none;fillColor=none;" parent="1" vertex="1">
          <mxGeometry x="190" y="545" width="30" height="30" as="geometry" />
        </mxCell>
        <mxCell id="LjDAhGZPJIQlyWtu0RJv-64" value="n" style="text;html=1;align=center;verticalAlign=middle;resizable=0;points=[];autosize=1;strokeColor=none;fillColor=none;" parent="1" vertex="1">
          <mxGeometry x="120" y="545" width="30" height="30" as="geometry" />
        </mxCell>
        <mxCell id="LjDAhGZPJIQlyWtu0RJv-65" value="Marca" style="ellipse;whiteSpace=wrap;html=1;" parent="1" vertex="1">
          <mxGeometry x="-170" y="495" width="60" height="40" as="geometry" />
        </mxCell>
        <mxCell id="LjDAhGZPJIQlyWtu0RJv-66" value="&lt;u&gt;Placa&lt;/u&gt;" style="ellipse;whiteSpace=wrap;html=1;" parent="1" vertex="1">
          <mxGeometry x="-190" y="550" width="60" height="40" as="geometry" />
        </mxCell>
        <mxCell id="LjDAhGZPJIQlyWtu0RJv-67" value="Modelo" style="ellipse;whiteSpace=wrap;html=1;" parent="1" vertex="1">
          <mxGeometry x="-120" y="450" width="60" height="40" as="geometry" />
        </mxCell>
        <mxCell id="LjDAhGZPJIQlyWtu0RJv-68" value="Cor" style="ellipse;whiteSpace=wrap;html=1;" parent="1" vertex="1">
          <mxGeometry x="-40" y="450" width="60" height="40" as="geometry" />
        </mxCell>
        <mxCell id="LjDAhGZPJIQlyWtu0RJv-69" value="Ano" style="ellipse;whiteSpace=wrap;html=1;" parent="1" vertex="1">
          <mxGeometry x="30" y="450" width="60" height="40" as="geometry" />
        </mxCell>
        <mxCell id="LjDAhGZPJIQlyWtu0RJv-70" value="Preço diária" style="ellipse;whiteSpace=wrap;html=1;" parent="1" vertex="1">
          <mxGeometry x="105" y="450" width="60" height="40" as="geometry" />
        </mxCell>
        <mxCell id="LjDAhGZPJIQlyWtu0RJv-71" value="" style="endArrow=none;html=1;rounded=0;exitX=0;exitY=1;exitDx=0;exitDy=0;entryX=1;entryY=0;entryDx=0;entryDy=0;" parent="1" source="LjDAhGZPJIQlyWtu0RJv-70" target="LjDAhGZPJIQlyWtu0RJv-2" edge="1">
          <mxGeometry width="50" height="50" relative="1" as="geometry">
            <mxPoint x="110" y="600" as="sourcePoint" />
            <mxPoint x="160" y="550" as="targetPoint" />
          </mxGeometry>
        </mxCell>
        <mxCell id="LjDAhGZPJIQlyWtu0RJv-72" value="" style="endArrow=none;html=1;rounded=0;entryX=0.75;entryY=0;entryDx=0;entryDy=0;" parent="1" target="LjDAhGZPJIQlyWtu0RJv-2" edge="1">
          <mxGeometry width="50" height="50" relative="1" as="geometry">
            <mxPoint x="48" y="490" as="sourcePoint" />
            <mxPoint x="160" y="550" as="targetPoint" />
          </mxGeometry>
        </mxCell>
        <mxCell id="LjDAhGZPJIQlyWtu0RJv-73" value="" style="endArrow=none;html=1;rounded=0;exitX=0.383;exitY=0.993;exitDx=0;exitDy=0;exitPerimeter=0;entryX=0.358;entryY=-0.017;entryDx=0;entryDy=0;entryPerimeter=0;" parent="1" source="LjDAhGZPJIQlyWtu0RJv-68" target="LjDAhGZPJIQlyWtu0RJv-2" edge="1">
          <mxGeometry width="50" height="50" relative="1" as="geometry">
            <mxPoint x="110" y="600" as="sourcePoint" />
            <mxPoint x="160" y="550" as="targetPoint" />
          </mxGeometry>
        </mxCell>
        <mxCell id="LjDAhGZPJIQlyWtu0RJv-74" value="" style="endArrow=none;html=1;rounded=0;exitX=0.649;exitY=1.057;exitDx=0;exitDy=0;exitPerimeter=0;entryX=0.075;entryY=0.005;entryDx=0;entryDy=0;entryPerimeter=0;" parent="1" source="LjDAhGZPJIQlyWtu0RJv-67" target="LjDAhGZPJIQlyWtu0RJv-2" edge="1">
          <mxGeometry width="50" height="50" relative="1" as="geometry">
            <mxPoint x="110" y="600" as="sourcePoint" />
            <mxPoint x="160" y="550" as="targetPoint" />
          </mxGeometry>
        </mxCell>
        <mxCell id="LjDAhGZPJIQlyWtu0RJv-75" value="" style="endArrow=none;html=1;rounded=0;exitX=1;exitY=1;exitDx=0;exitDy=0;entryX=-0.015;entryY=0.346;entryDx=0;entryDy=0;entryPerimeter=0;" parent="1" source="LjDAhGZPJIQlyWtu0RJv-65" target="LjDAhGZPJIQlyWtu0RJv-2" edge="1">
          <mxGeometry width="50" height="50" relative="1" as="geometry">
            <mxPoint x="110" y="600" as="sourcePoint" />
            <mxPoint x="160" y="550" as="targetPoint" />
          </mxGeometry>
        </mxCell>
        <mxCell id="LjDAhGZPJIQlyWtu0RJv-76" value="" style="endArrow=none;html=1;rounded=0;exitX=1;exitY=0.5;exitDx=0;exitDy=0;entryX=0;entryY=0.75;entryDx=0;entryDy=0;" parent="1" source="LjDAhGZPJIQlyWtu0RJv-66" target="LjDAhGZPJIQlyWtu0RJv-2" edge="1">
          <mxGeometry width="50" height="50" relative="1" as="geometry">
            <mxPoint x="110" y="600" as="sourcePoint" />
            <mxPoint x="160" y="550" as="targetPoint" />
          </mxGeometry>
        </mxCell>
        <mxCell id="LjDAhGZPJIQlyWtu0RJv-77" value="aluga" style="rhombus;whiteSpace=wrap;html=1;" parent="1" vertex="1">
          <mxGeometry x="-95" y="660" width="50" height="50" as="geometry" />
        </mxCell>
        <mxCell id="LjDAhGZPJIQlyWtu0RJv-78" value="" style="endArrow=none;html=1;rounded=0;exitX=0.25;exitY=1;exitDx=0;exitDy=0;entryX=0.5;entryY=0;entryDx=0;entryDy=0;" parent="1" source="LjDAhGZPJIQlyWtu0RJv-2" target="LjDAhGZPJIQlyWtu0RJv-77" edge="1">
          <mxGeometry width="50" height="50" relative="1" as="geometry">
            <mxPoint x="70" y="580" as="sourcePoint" />
            <mxPoint x="160" y="580" as="targetPoint" />
          </mxGeometry>
        </mxCell>
        <mxCell id="LjDAhGZPJIQlyWtu0RJv-79" value="" style="endArrow=none;html=1;rounded=0;exitX=0.671;exitY=0.008;exitDx=0;exitDy=0;exitPerimeter=0;entryX=0;entryY=1;entryDx=0;entryDy=0;" parent="1" source="LjDAhGZPJIQlyWtu0RJv-3" target="LjDAhGZPJIQlyWtu0RJv-77" edge="1">
          <mxGeometry width="50" height="50" relative="1" as="geometry">
            <mxPoint x="80" y="590" as="sourcePoint" />
            <mxPoint x="170" y="590" as="targetPoint" />
          </mxGeometry>
        </mxCell>
        <mxCell id="LjDAhGZPJIQlyWtu0RJv-80" value="n" style="text;html=1;align=center;verticalAlign=middle;resizable=0;points=[];autosize=1;strokeColor=none;fillColor=none;" parent="1" vertex="1">
          <mxGeometry x="-70" y="640" width="30" height="30" as="geometry" />
        </mxCell>
        <mxCell id="LjDAhGZPJIQlyWtu0RJv-81" value="n" style="text;html=1;align=center;verticalAlign=middle;resizable=0;points=[];autosize=1;strokeColor=none;fillColor=none;" parent="1" vertex="1">
          <mxGeometry x="-95" y="700" width="30" height="30" as="geometry" />
        </mxCell>
        <mxCell id="LjDAhGZPJIQlyWtu0RJv-82" value="Nome" style="ellipse;whiteSpace=wrap;html=1;" parent="1" vertex="1">
          <mxGeometry x="-310" y="850" width="60" height="40" as="geometry" />
        </mxCell>
        <mxCell id="LjDAhGZPJIQlyWtu0RJv-83" value="Email&lt;span style=&quot;color: rgba(0, 0, 0, 0); font-family: monospace; font-size: 0px; text-align: start; text-wrap: nowrap;&quot;&gt;%3CmxGraphModel%3E%3Croot%3E%3CmxCell%20id%3D%220%22%2F%3E%3CmxCell%20id%3D%221%22%20parent%3D%220%22%2F%3E%3CmxCell%20id%3D%222%22%20value%3D%22Nome%22%20style%3D%22ellipse%3BwhiteSpace%3Dwrap%3Bhtml%3D1%3B%22%20vertex%3D%221%22%20parent%3D%221%22%3E%3CmxGeometry%20x%3D%22330%22%20y%3D%22110%22%20width%3D%2260%22%20height%3D%2240%22%20as%3D%22geometry%22%2F%3E%3C%2FmxCell%3E%3C%2Froot%3E%3C%2FmxGraphModel%3E&lt;/span&gt;" style="ellipse;whiteSpace=wrap;html=1;" parent="1" vertex="1">
          <mxGeometry x="-230" y="900" width="60" height="40" as="geometry" />
        </mxCell>
        <mxCell id="LjDAhGZPJIQlyWtu0RJv-84" value="Telefone" style="ellipse;whiteSpace=wrap;html=1;" parent="1" vertex="1">
          <mxGeometry x="-160" y="900" width="60" height="40" as="geometry" />
        </mxCell>
        <mxCell id="LjDAhGZPJIQlyWtu0RJv-85" value="&lt;u&gt;CPF&lt;/u&gt;" style="ellipse;whiteSpace=wrap;html=1;" parent="1" vertex="1">
          <mxGeometry x="-310" y="800" width="60" height="40" as="geometry" />
        </mxCell>
        <mxCell id="LjDAhGZPJIQlyWtu0RJv-90" value="" style="endArrow=none;html=1;rounded=0;exitX=1;exitY=0.5;exitDx=0;exitDy=0;" parent="1" edge="1">
          <mxGeometry width="50" height="50" relative="1" as="geometry">
            <mxPoint x="-255" y="860" as="sourcePoint" />
            <mxPoint x="-215" y="860" as="targetPoint" />
          </mxGeometry>
        </mxCell>
        <mxCell id="LjDAhGZPJIQlyWtu0RJv-91" value="" style="endArrow=none;html=1;rounded=0;exitX=0.5;exitY=0;exitDx=0;exitDy=0;entryX=0.149;entryY=1.031;entryDx=0;entryDy=0;entryPerimeter=0;" parent="1" source="LjDAhGZPJIQlyWtu0RJv-83" target="LjDAhGZPJIQlyWtu0RJv-3" edge="1">
          <mxGeometry width="50" height="50" relative="1" as="geometry">
            <mxPoint y="890" as="sourcePoint" />
            <mxPoint x="50" y="840" as="targetPoint" />
          </mxGeometry>
        </mxCell>
        <mxCell id="LjDAhGZPJIQlyWtu0RJv-92" value="" style="endArrow=none;html=1;rounded=0;exitX=0.5;exitY=0;exitDx=0;exitDy=0;entryX=0.75;entryY=1;entryDx=0;entryDy=0;" parent="1" source="LjDAhGZPJIQlyWtu0RJv-84" target="LjDAhGZPJIQlyWtu0RJv-3" edge="1">
          <mxGeometry width="50" height="50" relative="1" as="geometry">
            <mxPoint y="890" as="sourcePoint" />
            <mxPoint x="50" y="840" as="targetPoint" />
          </mxGeometry>
        </mxCell>
        <mxCell id="LjDAhGZPJIQlyWtu0RJv-93" value="" style="endArrow=none;html=1;rounded=0;exitX=0;exitY=0.25;exitDx=0;exitDy=0;" parent="1" source="LjDAhGZPJIQlyWtu0RJv-3" target="LjDAhGZPJIQlyWtu0RJv-85" edge="1">
          <mxGeometry width="50" height="50" relative="1" as="geometry">
            <mxPoint y="890" as="sourcePoint" />
            <mxPoint x="50" y="840" as="targetPoint" />
          </mxGeometry>
        </mxCell>
        <mxCell id="LjDAhGZPJIQlyWtu0RJv-96" value="" style="rounded=0;whiteSpace=wrap;html=1;shadow=0;" parent="1" vertex="1">
          <mxGeometry x="-80" y="-40" width="750" height="90" as="geometry" />
        </mxCell>
        <mxCell id="LjDAhGZPJIQlyWtu0RJv-94" value="&lt;font style=&quot;font-size: 48px;&quot;&gt;DER: Loja de Aluguel de Veículos&lt;/font&gt;" style="text;html=1;align=center;verticalAlign=middle;resizable=0;points=[];autosize=1;strokeColor=none;fillColor=none;" parent="1" vertex="1">
          <mxGeometry x="-80" y="-30" width="740" height="70" as="geometry" />
        </mxCell>
        <mxCell id="LjDAhGZPJIQlyWtu0RJv-97" value="Data início" style="ellipse;whiteSpace=wrap;html=1;" parent="1" vertex="1">
          <mxGeometry x="-190" y="660" width="60" height="40" as="geometry" />
        </mxCell>
        <mxCell id="LjDAhGZPJIQlyWtu0RJv-98" value="&lt;u&gt;ID&lt;/u&gt;" style="ellipse;whiteSpace=wrap;html=1;" parent="1" vertex="1">
          <mxGeometry x="-15" y="680" width="60" height="40" as="geometry" />
        </mxCell>
        <mxCell id="LjDAhGZPJIQlyWtu0RJv-99" value="" style="endArrow=none;html=1;rounded=0;exitX=1;exitY=0.5;exitDx=0;exitDy=0;entryX=0;entryY=0.5;entryDx=0;entryDy=0;" parent="1" source="LjDAhGZPJIQlyWtu0RJv-97" target="LjDAhGZPJIQlyWtu0RJv-77" edge="1">
          <mxGeometry width="50" height="50" relative="1" as="geometry">
            <mxPoint x="180" y="730" as="sourcePoint" />
            <mxPoint x="230" y="680" as="targetPoint" />
          </mxGeometry>
        </mxCell>
        <mxCell id="LjDAhGZPJIQlyWtu0RJv-100" value="" style="endArrow=none;html=1;rounded=0;exitX=0.88;exitY=0.63;exitDx=0;exitDy=0;entryX=0;entryY=0.5;entryDx=0;entryDy=0;exitPerimeter=0;" parent="1" source="LjDAhGZPJIQlyWtu0RJv-77" target="LjDAhGZPJIQlyWtu0RJv-98" edge="1">
          <mxGeometry width="50" height="50" relative="1" as="geometry">
            <mxPoint x="-45" y="695" as="sourcePoint" />
            <mxPoint x="-10" y="700" as="targetPoint" />
          </mxGeometry>
        </mxCell>
        <mxCell id="LjDAhGZPJIQlyWtu0RJv-101" value="&lt;u&gt;ID Aluguel&lt;/u&gt;" style="ellipse;whiteSpace=wrap;html=1;" parent="1" vertex="1">
          <mxGeometry x="470" y="800" width="80" height="40" as="geometry" />
        </mxCell>
        <mxCell id="LjDAhGZPJIQlyWtu0RJv-102" value="Valor total" style="ellipse;whiteSpace=wrap;html=1;" parent="1" vertex="1">
          <mxGeometry x="475" y="870" width="70" height="40" as="geometry" />
        </mxCell>
        <mxCell id="LjDAhGZPJIQlyWtu0RJv-103" value="Tipo" style="ellipse;whiteSpace=wrap;html=1;" parent="1" vertex="1">
          <mxGeometry x="400" y="910" width="60" height="40" as="geometry" />
        </mxCell>
        <mxCell id="LjDAhGZPJIQlyWtu0RJv-104" value="gerencia" style="rhombus;whiteSpace=wrap;html=1;" parent="1" vertex="1">
          <mxGeometry x="330" y="690" width="55" height="50" as="geometry" />
        </mxCell>
        <mxCell id="LjDAhGZPJIQlyWtu0RJv-105" value="1" style="text;html=1;align=center;verticalAlign=middle;resizable=0;points=[];autosize=1;strokeColor=none;fillColor=none;" parent="1" vertex="1">
          <mxGeometry x="330" y="670" width="30" height="30" as="geometry" />
        </mxCell>
        <mxCell id="LjDAhGZPJIQlyWtu0RJv-106" value="n" style="text;html=1;align=center;verticalAlign=middle;resizable=0;points=[];autosize=1;strokeColor=none;fillColor=none;" parent="1" vertex="1">
          <mxGeometry x="330" y="730" width="30" height="30" as="geometry" />
        </mxCell>
        <mxCell id="LjDAhGZPJIQlyWtu0RJv-107" value="" style="endArrow=none;html=1;rounded=0;exitX=0.5;exitY=0;exitDx=0;exitDy=0;" parent="1" source="LjDAhGZPJIQlyWtu0RJv-104" edge="1">
          <mxGeometry width="50" height="50" relative="1" as="geometry">
            <mxPoint x="210" y="580" as="sourcePoint" />
            <mxPoint x="358" y="600" as="targetPoint" />
          </mxGeometry>
        </mxCell>
        <mxCell id="LjDAhGZPJIQlyWtu0RJv-108" value="" style="endArrow=none;html=1;rounded=0;exitX=0.5;exitY=1;exitDx=0;exitDy=0;" parent="1" source="LjDAhGZPJIQlyWtu0RJv-104" edge="1">
          <mxGeometry width="50" height="50" relative="1" as="geometry">
            <mxPoint x="220" y="590" as="sourcePoint" />
            <mxPoint x="358" y="810" as="targetPoint" />
          </mxGeometry>
        </mxCell>
        <mxCell id="LjDAhGZPJIQlyWtu0RJv-109" value="possui" style="rhombus;whiteSpace=wrap;html=1;" parent="1" vertex="1">
          <mxGeometry x="80" y="815" width="50" height="50" as="geometry" />
        </mxCell>
        <mxCell id="LjDAhGZPJIQlyWtu0RJv-110" value="" style="endArrow=none;html=1;rounded=0;exitX=1;exitY=0.5;exitDx=0;exitDy=0;" parent="1" source="LjDAhGZPJIQlyWtu0RJv-3" edge="1">
          <mxGeometry width="50" height="50" relative="1" as="geometry">
            <mxPoint x="-10" y="840" as="sourcePoint" />
            <mxPoint x="80" y="840" as="targetPoint" />
          </mxGeometry>
        </mxCell>
        <mxCell id="LjDAhGZPJIQlyWtu0RJv-111" value="1" style="text;html=1;align=center;verticalAlign=middle;resizable=0;points=[];autosize=1;strokeColor=none;fillColor=none;" parent="1" vertex="1">
          <mxGeometry x="50" y="815" width="30" height="30" as="geometry" />
        </mxCell>
        <mxCell id="LjDAhGZPJIQlyWtu0RJv-112" value="" style="endArrow=none;html=1;rounded=0;exitX=1;exitY=0.5;exitDx=0;exitDy=0;entryX=0;entryY=0.5;entryDx=0;entryDy=0;" parent="1" target="LjDAhGZPJIQlyWtu0RJv-6" edge="1">
          <mxGeometry width="50" height="50" relative="1" as="geometry">
            <mxPoint x="130" y="840" as="sourcePoint" />
            <mxPoint x="230" y="840" as="targetPoint" />
          </mxGeometry>
        </mxCell>
        <mxCell id="LjDAhGZPJIQlyWtu0RJv-113" value="n" style="text;html=1;align=center;verticalAlign=middle;resizable=0;points=[];autosize=1;strokeColor=none;fillColor=none;" parent="1" vertex="1">
          <mxGeometry x="120" y="815" width="30" height="30" as="geometry" />
        </mxCell>
        <mxCell id="LjDAhGZPJIQlyWtu0RJv-114" value="" style="endArrow=none;html=1;rounded=0;entryX=0;entryY=0.5;entryDx=0;entryDy=0;exitX=1;exitY=0.25;exitDx=0;exitDy=0;" parent="1" source="LjDAhGZPJIQlyWtu0RJv-6" target="LjDAhGZPJIQlyWtu0RJv-101" edge="1">
          <mxGeometry width="50" height="50" relative="1" as="geometry">
            <mxPoint x="180" y="830" as="sourcePoint" />
            <mxPoint x="230" y="780" as="targetPoint" />
          </mxGeometry>
        </mxCell>
        <mxCell id="LjDAhGZPJIQlyWtu0RJv-117" value="" style="endArrow=none;html=1;rounded=0;entryX=0.011;entryY=0.31;entryDx=0;entryDy=0;exitX=1;exitY=0.75;exitDx=0;exitDy=0;entryPerimeter=0;" parent="1" source="LjDAhGZPJIQlyWtu0RJv-6" target="LjDAhGZPJIQlyWtu0RJv-102" edge="1">
          <mxGeometry width="50" height="50" relative="1" as="geometry">
            <mxPoint x="430" y="835" as="sourcePoint" />
            <mxPoint x="480" y="830" as="targetPoint" />
          </mxGeometry>
        </mxCell>
        <mxCell id="LjDAhGZPJIQlyWtu0RJv-120" value="" style="endArrow=none;html=1;rounded=0;entryX=0.3;entryY=0.054;entryDx=0;entryDy=0;exitX=0.708;exitY=1.014;exitDx=0;exitDy=0;entryPerimeter=0;exitPerimeter=0;" parent="1" source="LjDAhGZPJIQlyWtu0RJv-6" target="LjDAhGZPJIQlyWtu0RJv-103" edge="1">
          <mxGeometry width="50" height="50" relative="1" as="geometry">
            <mxPoint x="430" y="865" as="sourcePoint" />
            <mxPoint x="490" y="870" as="targetPoint" />
          </mxGeometry>
        </mxCell>
        <mxCell id="LjDAhGZPJIQlyWtu0RJv-121" value="Data nascimento" style="ellipse;whiteSpace=wrap;html=1;" parent="1" vertex="1">
          <mxGeometry x="-90" y="900" width="80" height="40" as="geometry" />
        </mxCell>
        <mxCell id="LjDAhGZPJIQlyWtu0RJv-122" value="" style="endArrow=none;html=1;rounded=0;exitX=1;exitY=1;exitDx=0;exitDy=0;entryX=0;entryY=0;entryDx=0;entryDy=0;" parent="1" source="LjDAhGZPJIQlyWtu0RJv-3" edge="1">
          <mxGeometry width="50" height="50" relative="1" as="geometry">
            <mxPoint x="-86" y="872" as="sourcePoint" />
            <mxPoint x="-60" y="900" as="targetPoint" />
          </mxGeometry>
        </mxCell>
        <mxCell id="LjDAhGZPJIQlyWtu0RJv-124" value="Status" style="ellipse;whiteSpace=wrap;html=1;" parent="1" vertex="1">
          <mxGeometry x="330" y="910" width="60" height="40" as="geometry" />
        </mxCell>
        <mxCell id="LjDAhGZPJIQlyWtu0RJv-125" value="" style="endArrow=none;html=1;rounded=0;entryX=0.334;entryY=1.019;entryDx=0;entryDy=0;exitX=0.359;exitY=-0.011;exitDx=0;exitDy=0;entryPerimeter=0;exitPerimeter=0;" parent="1" source="LjDAhGZPJIQlyWtu0RJv-124" target="LjDAhGZPJIQlyWtu0RJv-6" edge="1">
          <mxGeometry width="50" height="50" relative="1" as="geometry">
            <mxPoint x="395" y="881" as="sourcePoint" />
            <mxPoint x="438" y="902" as="targetPoint" />
          </mxGeometry>
        </mxCell>
        <mxCell id="LjDAhGZPJIQlyWtu0RJv-126" value="Data fim" style="ellipse;whiteSpace=wrap;html=1;" parent="1" vertex="1">
          <mxGeometry x="-190" y="700" width="60" height="40" as="geometry" />
        </mxCell>
        <mxCell id="LjDAhGZPJIQlyWtu0RJv-128" value="" style="endArrow=none;html=1;rounded=0;exitX=1;exitY=0;exitDx=0;exitDy=0;entryX=0.098;entryY=0.702;entryDx=0;entryDy=0;entryPerimeter=0;" parent="1" source="LjDAhGZPJIQlyWtu0RJv-126" target="LjDAhGZPJIQlyWtu0RJv-77" edge="1">
          <mxGeometry width="50" height="50" relative="1" as="geometry">
            <mxPoint x="-120" y="690" as="sourcePoint" />
            <mxPoint x="-85" y="695" as="targetPoint" />
          </mxGeometry>
        </mxCell>
        <mxCell id="LjDAhGZPJIQlyWtu0RJv-129" value="Data" style="ellipse;whiteSpace=wrap;html=1;" parent="1" vertex="1">
          <mxGeometry x="265" y="910" width="60" height="40" as="geometry" />
        </mxCell>
        <mxCell id="LjDAhGZPJIQlyWtu0RJv-130" value="" style="endArrow=none;html=1;rounded=0;entryX=0.068;entryY=1.019;entryDx=0;entryDy=0;exitX=0.5;exitY=0;exitDx=0;exitDy=0;entryPerimeter=0;" parent="1" source="LjDAhGZPJIQlyWtu0RJv-129" target="LjDAhGZPJIQlyWtu0RJv-6" edge="1">
          <mxGeometry width="50" height="50" relative="1" as="geometry">
            <mxPoint x="347" y="910" as="sourcePoint" />
            <mxPoint x="350" y="881" as="targetPoint" />
          </mxGeometry>
        </mxCell>
        <mxCell id="LjDAhGZPJIQlyWtu0RJv-131" value="FUNCIONARIO" style="text;html=1;align=center;verticalAlign=middle;resizable=0;points=[];autosize=1;strokeColor=none;fillColor=none;" parent="1" vertex="1">
          <mxGeometry x="-1390.08" y="395" width="110" height="30" as="geometry" />
        </mxCell>
        <mxCell id="LjDAhGZPJIQlyWtu0RJv-132" value="&lt;u&gt;ID&lt;/u&gt;" style="rounded=0;whiteSpace=wrap;html=1;" parent="1" vertex="1">
          <mxGeometry x="-1385.08" y="425" width="75" height="30" as="geometry" />
        </mxCell>
        <mxCell id="LjDAhGZPJIQlyWtu0RJv-133" value="Salario" style="rounded=0;whiteSpace=wrap;html=1;" parent="1" vertex="1">
          <mxGeometry x="-1085.08" y="425" width="75" height="30" as="geometry" />
        </mxCell>
        <mxCell id="LjDAhGZPJIQlyWtu0RJv-134" value="Telefone" style="rounded=0;whiteSpace=wrap;html=1;" parent="1" vertex="1">
          <mxGeometry x="-1160.08" y="425" width="75" height="30" as="geometry" />
        </mxCell>
        <mxCell id="LjDAhGZPJIQlyWtu0RJv-135" value="Nome" style="rounded=0;whiteSpace=wrap;html=1;" parent="1" vertex="1">
          <mxGeometry x="-1310.08" y="425" width="75" height="30" as="geometry" />
        </mxCell>
        <mxCell id="LjDAhGZPJIQlyWtu0RJv-136" value="Email" style="rounded=0;whiteSpace=wrap;html=1;" parent="1" vertex="1">
          <mxGeometry x="-1235.08" y="425" width="75" height="30" as="geometry" />
        </mxCell>
        <mxCell id="LjDAhGZPJIQlyWtu0RJv-137" value="DEPENDENTE" style="text;html=1;align=center;verticalAlign=middle;resizable=0;points=[];autosize=1;strokeColor=none;fillColor=none;" parent="1" vertex="1">
          <mxGeometry x="-1387.58" y="310" width="110" height="30" as="geometry" />
        </mxCell>
        <mxCell id="LjDAhGZPJIQlyWtu0RJv-138" value="&lt;u&gt;ID&lt;/u&gt;" style="rounded=0;whiteSpace=wrap;html=1;" parent="1" vertex="1">
          <mxGeometry x="-1382.58" y="340" width="75" height="30" as="geometry" />
        </mxCell>
        <mxCell id="LjDAhGZPJIQlyWtu0RJv-141" value="Nome" style="rounded=0;whiteSpace=wrap;html=1;" parent="1" vertex="1">
          <mxGeometry x="-1307.58" y="340" width="75" height="30" as="geometry" />
        </mxCell>
        <mxCell id="LjDAhGZPJIQlyWtu0RJv-142" value="Parentesco" style="rounded=0;whiteSpace=wrap;html=1;" parent="1" vertex="1">
          <mxGeometry x="-1232.58" y="340" width="75" height="30" as="geometry" />
        </mxCell>
        <mxCell id="LjDAhGZPJIQlyWtu0RJv-144" style="edgeStyle=orthogonalEdgeStyle;rounded=0;orthogonalLoop=1;jettySize=auto;html=1;entryX=0;entryY=0.5;entryDx=0;entryDy=0;" parent="1" source="LjDAhGZPJIQlyWtu0RJv-143" target="LjDAhGZPJIQlyWtu0RJv-132" edge="1">
          <mxGeometry relative="1" as="geometry">
            <Array as="points">
              <mxPoint x="-1115.08" y="390" />
              <mxPoint x="-1405.08" y="390" />
              <mxPoint x="-1405.08" y="440" />
            </Array>
          </mxGeometry>
        </mxCell>
        <mxCell id="LjDAhGZPJIQlyWtu0RJv-143" value="&lt;u&gt;ID_Funcionario&lt;/u&gt;" style="rounded=0;whiteSpace=wrap;html=1;" parent="1" vertex="1">
          <mxGeometry x="-1160.08" y="340" width="90" height="30" as="geometry" />
        </mxCell>
        <mxCell id="LjDAhGZPJIQlyWtu0RJv-145" value="DEPARTAMENTO" style="text;html=1;align=center;verticalAlign=middle;resizable=0;points=[];autosize=1;strokeColor=none;fillColor=none;" parent="1" vertex="1">
          <mxGeometry x="-837.5" y="395" width="120" height="30" as="geometry" />
        </mxCell>
        <mxCell id="LjDAhGZPJIQlyWtu0RJv-146" value="&lt;u&gt;ID&lt;/u&gt;" style="rounded=0;whiteSpace=wrap;html=1;" parent="1" vertex="1">
          <mxGeometry x="-827.5" y="425" width="75" height="30" as="geometry" />
        </mxCell>
        <mxCell id="LjDAhGZPJIQlyWtu0RJv-149" value="Nome" style="rounded=0;whiteSpace=wrap;html=1;" parent="1" vertex="1">
          <mxGeometry x="-752.5" y="425" width="75" height="30" as="geometry" />
        </mxCell>
        <mxCell id="LjDAhGZPJIQlyWtu0RJv-152" value="LOJA" style="text;html=1;align=center;verticalAlign=middle;resizable=0;points=[];autosize=1;strokeColor=none;fillColor=none;" parent="1" vertex="1">
          <mxGeometry x="-800" y="495" width="50" height="30" as="geometry" />
        </mxCell>
        <mxCell id="LjDAhGZPJIQlyWtu0RJv-153" value="&lt;u&gt;CNPJ&lt;/u&gt;" style="rounded=0;whiteSpace=wrap;html=1;" parent="1" vertex="1">
          <mxGeometry x="-805" y="525" width="75" height="30" as="geometry" />
        </mxCell>
        <mxCell id="LjDAhGZPJIQlyWtu0RJv-156" value="NomeFantasia" style="rounded=0;whiteSpace=wrap;html=1;" parent="1" vertex="1">
          <mxGeometry x="-730" y="525" width="85" height="30" as="geometry" />
        </mxCell>
        <mxCell id="LjDAhGZPJIQlyWtu0RJv-157" value="Logradouro" style="rounded=0;whiteSpace=wrap;html=1;" parent="1" vertex="1">
          <mxGeometry x="-645" y="525" width="75" height="30" as="geometry" />
        </mxCell>
        <mxCell id="LjDAhGZPJIQlyWtu0RJv-158" value="PAGAMENTO" style="text;html=1;align=center;verticalAlign=middle;resizable=0;points=[];autosize=1;strokeColor=none;fillColor=none;" parent="1" vertex="1">
          <mxGeometry x="-910" y="630" width="100" height="30" as="geometry" />
        </mxCell>
        <mxCell id="LjDAhGZPJIQlyWtu0RJv-159" value="&lt;u&gt;ID Aluguel&lt;/u&gt;" style="rounded=0;whiteSpace=wrap;html=1;" parent="1" vertex="1">
          <mxGeometry x="-902.5" y="660" width="75" height="30" as="geometry" />
        </mxCell>
        <mxCell id="LjDAhGZPJIQlyWtu0RJv-160" value="Data" style="rounded=0;whiteSpace=wrap;html=1;" parent="1" vertex="1">
          <mxGeometry x="-602.5" y="660" width="75" height="30" as="geometry" />
        </mxCell>
        <mxCell id="LjDAhGZPJIQlyWtu0RJv-161" value="Status" style="rounded=0;whiteSpace=wrap;html=1;" parent="1" vertex="1">
          <mxGeometry x="-677.5" y="660" width="75" height="30" as="geometry" />
        </mxCell>
        <mxCell id="LjDAhGZPJIQlyWtu0RJv-162" value="Valor&lt;span style=&quot;background-color: initial;&quot;&gt;Total&lt;/span&gt;" style="rounded=0;whiteSpace=wrap;html=1;" parent="1" vertex="1">
          <mxGeometry x="-827.5" y="660" width="75" height="30" as="geometry" />
        </mxCell>
        <mxCell id="LjDAhGZPJIQlyWtu0RJv-163" value="Tipo" style="rounded=0;whiteSpace=wrap;html=1;" parent="1" vertex="1">
          <mxGeometry x="-752.5" y="660" width="75" height="30" as="geometry" />
        </mxCell>
        <mxCell id="LjDAhGZPJIQlyWtu0RJv-170" value="VEICULO" style="text;html=1;align=center;verticalAlign=middle;resizable=0;points=[];autosize=1;strokeColor=none;fillColor=none;" parent="1" vertex="1">
          <mxGeometry x="-1405" y="490" width="80" height="30" as="geometry" />
        </mxCell>
        <mxCell id="LjDAhGZPJIQlyWtu0RJv-171" value="&lt;u&gt;Placa&lt;/u&gt;" style="rounded=0;whiteSpace=wrap;html=1;" parent="1" vertex="1">
          <mxGeometry x="-1400" y="520" width="75" height="30" as="geometry" />
        </mxCell>
        <mxCell id="LjDAhGZPJIQlyWtu0RJv-172" value="Ano" style="rounded=0;whiteSpace=wrap;html=1;" parent="1" vertex="1">
          <mxGeometry x="-1100" y="520" width="75" height="30" as="geometry" />
        </mxCell>
        <mxCell id="LjDAhGZPJIQlyWtu0RJv-173" value="Cor" style="rounded=0;whiteSpace=wrap;html=1;" parent="1" vertex="1">
          <mxGeometry x="-1175" y="520" width="75" height="30" as="geometry" />
        </mxCell>
        <mxCell id="LjDAhGZPJIQlyWtu0RJv-174" value="Marca" style="rounded=0;whiteSpace=wrap;html=1;" parent="1" vertex="1">
          <mxGeometry x="-1325" y="520" width="75" height="30" as="geometry" />
        </mxCell>
        <mxCell id="LjDAhGZPJIQlyWtu0RJv-175" value="Modelo" style="rounded=0;whiteSpace=wrap;html=1;" parent="1" vertex="1">
          <mxGeometry x="-1250" y="520" width="75" height="30" as="geometry" />
        </mxCell>
        <mxCell id="LjDAhGZPJIQlyWtu0RJv-176" value="PrecoDiaria" style="rounded=0;whiteSpace=wrap;html=1;" parent="1" vertex="1">
          <mxGeometry x="-1025" y="520" width="75" height="30" as="geometry" />
        </mxCell>
        <mxCell id="LjDAhGZPJIQlyWtu0RJv-178" style="edgeStyle=orthogonalEdgeStyle;rounded=0;orthogonalLoop=1;jettySize=auto;html=1;entryX=0;entryY=0.5;entryDx=0;entryDy=0;" parent="1" source="LjDAhGZPJIQlyWtu0RJv-177" target="LjDAhGZPJIQlyWtu0RJv-146" edge="1">
          <mxGeometry relative="1" as="geometry" />
        </mxCell>
        <mxCell id="LjDAhGZPJIQlyWtu0RJv-177" value="ID_Departamento" style="rounded=0;whiteSpace=wrap;html=1;" parent="1" vertex="1">
          <mxGeometry x="-1015.08" y="425" width="110" height="30" as="geometry" />
        </mxCell>
        <mxCell id="LjDAhGZPJIQlyWtu0RJv-180" style="edgeStyle=orthogonalEdgeStyle;rounded=0;orthogonalLoop=1;jettySize=auto;html=1;entryX=0;entryY=0.5;entryDx=0;entryDy=0;" parent="1" source="LjDAhGZPJIQlyWtu0RJv-179" target="LjDAhGZPJIQlyWtu0RJv-153" edge="1">
          <mxGeometry relative="1" as="geometry">
            <Array as="points">
              <mxPoint x="-650" y="480" />
              <mxPoint x="-825" y="480" />
              <mxPoint x="-825" y="540" />
            </Array>
          </mxGeometry>
        </mxCell>
        <mxCell id="LjDAhGZPJIQlyWtu0RJv-179" value="CNPJ_Loja" style="rounded=0;whiteSpace=wrap;html=1;" parent="1" vertex="1">
          <mxGeometry x="-677.5" y="425" width="75" height="30" as="geometry" />
        </mxCell>
        <mxCell id="LjDAhGZPJIQlyWtu0RJv-181" value="CLIENTE" style="text;html=1;align=center;verticalAlign=middle;resizable=0;points=[];autosize=1;strokeColor=none;fillColor=none;" parent="1" vertex="1">
          <mxGeometry x="-1380" y="760" width="70" height="30" as="geometry" />
        </mxCell>
        <mxCell id="LjDAhGZPJIQlyWtu0RJv-182" value="&lt;u&gt;CPF&lt;/u&gt;" style="rounded=0;whiteSpace=wrap;html=1;" parent="1" vertex="1">
          <mxGeometry x="-1377.5" y="790" width="75" height="30" as="geometry" />
        </mxCell>
        <mxCell id="LjDAhGZPJIQlyWtu0RJv-183" value="DataNascimento" style="rounded=0;whiteSpace=wrap;html=1;" parent="1" vertex="1">
          <mxGeometry x="-1077.5" y="790" width="100" height="30" as="geometry" />
        </mxCell>
        <mxCell id="LjDAhGZPJIQlyWtu0RJv-184" value="Telefone" style="rounded=0;whiteSpace=wrap;html=1;" parent="1" vertex="1">
          <mxGeometry x="-1152.5" y="790" width="75" height="30" as="geometry" />
        </mxCell>
        <mxCell id="LjDAhGZPJIQlyWtu0RJv-185" value="Nome" style="rounded=0;whiteSpace=wrap;html=1;" parent="1" vertex="1">
          <mxGeometry x="-1302.5" y="790" width="75" height="30" as="geometry" />
        </mxCell>
        <mxCell id="LjDAhGZPJIQlyWtu0RJv-186" value="Email" style="rounded=0;whiteSpace=wrap;html=1;" parent="1" vertex="1">
          <mxGeometry x="-1227.5" y="790" width="75" height="30" as="geometry" />
        </mxCell>
        <mxCell id="LjDAhGZPJIQlyWtu0RJv-188" style="edgeStyle=orthogonalEdgeStyle;rounded=0;orthogonalLoop=1;jettySize=auto;html=1;entryX=0.5;entryY=1;entryDx=0;entryDy=0;" parent="1" source="LjDAhGZPJIQlyWtu0RJv-187" target="LjDAhGZPJIQlyWtu0RJv-153" edge="1">
          <mxGeometry relative="1" as="geometry">
            <Array as="points">
              <mxPoint x="-910" y="575" />
              <mxPoint x="-767" y="575" />
            </Array>
          </mxGeometry>
        </mxCell>
        <mxCell id="LjDAhGZPJIQlyWtu0RJv-187" value="CNPJ_Loja" style="rounded=0;whiteSpace=wrap;html=1;" parent="1" vertex="1">
          <mxGeometry x="-950" y="520" width="75" height="30" as="geometry" />
        </mxCell>
        <mxCell id="LjDAhGZPJIQlyWtu0RJv-190" style="edgeStyle=orthogonalEdgeStyle;rounded=0;orthogonalLoop=1;jettySize=auto;html=1;exitX=0.5;exitY=0;exitDx=0;exitDy=0;entryX=0.75;entryY=1;entryDx=0;entryDy=0;" parent="1" source="LjDAhGZPJIQlyWtu0RJv-189" target="LjDAhGZPJIQlyWtu0RJv-153" edge="1">
          <mxGeometry relative="1" as="geometry">
            <Array as="points">
              <mxPoint x="-490" y="580" />
              <mxPoint x="-749" y="580" />
            </Array>
          </mxGeometry>
        </mxCell>
        <mxCell id="LjDAhGZPJIQlyWtu0RJv-189" value="CNPJ_Loja" style="rounded=0;whiteSpace=wrap;html=1;" parent="1" vertex="1">
          <mxGeometry x="-527.5" y="660" width="75" height="30" as="geometry" />
        </mxCell>
        <mxCell id="LjDAhGZPJIQlyWtu0RJv-191" value="ALUGUEL" style="text;html=1;align=center;verticalAlign=middle;resizable=0;points=[];autosize=1;strokeColor=none;fillColor=none;" parent="1" vertex="1">
          <mxGeometry x="-1396.25" y="620" width="80" height="30" as="geometry" />
        </mxCell>
        <mxCell id="LjDAhGZPJIQlyWtu0RJv-192" value="&lt;u&gt;ID&lt;/u&gt;" style="rounded=0;whiteSpace=wrap;html=1;" parent="1" vertex="1">
          <mxGeometry x="-1388.75" y="650" width="75" height="30" as="geometry" />
        </mxCell>
        <mxCell id="LjDAhGZPJIQlyWtu0RJv-195" value="DataInicio" style="rounded=0;whiteSpace=wrap;html=1;" parent="1" vertex="1">
          <mxGeometry x="-1313.75" y="650" width="75" height="30" as="geometry" />
        </mxCell>
        <mxCell id="LjDAhGZPJIQlyWtu0RJv-196" value="DataFim" style="rounded=0;whiteSpace=wrap;html=1;" parent="1" vertex="1">
          <mxGeometry x="-1238.75" y="650" width="75" height="30" as="geometry" />
        </mxCell>
        <mxCell id="LjDAhGZPJIQlyWtu0RJv-200" style="edgeStyle=orthogonalEdgeStyle;rounded=0;orthogonalLoop=1;jettySize=auto;html=1;exitX=0.5;exitY=0;exitDx=0;exitDy=0;entryX=0.5;entryY=1;entryDx=0;entryDy=0;" parent="1" source="LjDAhGZPJIQlyWtu0RJv-197" target="LjDAhGZPJIQlyWtu0RJv-171" edge="1">
          <mxGeometry relative="1" as="geometry">
            <Array as="points">
              <mxPoint x="-1127" y="590" />
              <mxPoint x="-1363" y="590" />
            </Array>
          </mxGeometry>
        </mxCell>
        <mxCell id="LjDAhGZPJIQlyWtu0RJv-197" value="PlacaVeiculo" style="rounded=0;whiteSpace=wrap;html=1;" parent="1" vertex="1">
          <mxGeometry x="-1165" y="650" width="75" height="30" as="geometry" />
        </mxCell>
        <mxCell id="LjDAhGZPJIQlyWtu0RJv-199" style="edgeStyle=orthogonalEdgeStyle;rounded=0;orthogonalLoop=1;jettySize=auto;html=1;entryX=0;entryY=0.5;entryDx=0;entryDy=0;" parent="1" source="LjDAhGZPJIQlyWtu0RJv-198" target="LjDAhGZPJIQlyWtu0RJv-182" edge="1">
          <mxGeometry relative="1" as="geometry">
            <Array as="points">
              <mxPoint x="-1045" y="730" />
              <mxPoint x="-1397" y="730" />
              <mxPoint x="-1397" y="805" />
            </Array>
          </mxGeometry>
        </mxCell>
        <mxCell id="LjDAhGZPJIQlyWtu0RJv-198" value="CPF_Cliente" style="rounded=0;whiteSpace=wrap;html=1;" parent="1" vertex="1">
          <mxGeometry x="-1090" y="650" width="90" height="30" as="geometry" />
        </mxCell>
        <mxCell id="LjDAhGZPJIQlyWtu0RJv-203" style="edgeStyle=orthogonalEdgeStyle;rounded=0;orthogonalLoop=1;jettySize=auto;html=1;exitX=0.5;exitY=1;exitDx=0;exitDy=0;entryX=0.5;entryY=1;entryDx=0;entryDy=0;" parent="1" source="LjDAhGZPJIQlyWtu0RJv-201" target="LjDAhGZPJIQlyWtu0RJv-182" edge="1">
          <mxGeometry relative="1" as="geometry" />
        </mxCell>
        <mxCell id="LjDAhGZPJIQlyWtu0RJv-201" value="CPF_Cliente" style="rounded=0;whiteSpace=wrap;html=1;" parent="1" vertex="1">
          <mxGeometry x="-452.5" y="660" width="90" height="30" as="geometry" />
        </mxCell>
        <mxCell id="LjDAhGZPJIQlyWtu0RJv-205" value="" style="rounded=0;whiteSpace=wrap;html=1;shadow=0;" parent="1" vertex="1">
          <mxGeometry x="-1310" y="208" width="750" height="90" as="geometry" />
        </mxCell>
        <mxCell id="LjDAhGZPJIQlyWtu0RJv-206" value="&lt;font style=&quot;font-size: 48px;&quot;&gt;DSC: Loja de Aluguel de Veículos&lt;/font&gt;" style="text;html=1;align=center;verticalAlign=middle;resizable=0;points=[];autosize=1;strokeColor=none;fillColor=none;" parent="1" vertex="1">
          <mxGeometry x="-1310" y="218" width="740" height="70" as="geometry" />
        </mxCell>
      </root>
    </mxGraphModel>
  </diagram>
</mxfile>
